# xmcd
#
# Track frame offsets:
#	225
#	11950
#	27063
#	37699
#	51125
#	62837
#	72868
#	84059
#	97627
#	107129
#	118667
#	127830
#	140719
#	151916
#	159025
#	167610
#	174666
#	182139
#	189994
#	198719
#	208456
#	218878
#	225967
#	233465
#	241670
#	249140
#	256486
#	265462
#	274070
#	281392
#	290542
#	300419
#	310453
#	319312
#	327131
#	333604
#
# Disc length: 4542 seconds
#
# Revision: 2
# Processed by: cddbd v1.5.1PL2 Copyright (c) Steve Scherf et al.
# Submitted via: audiograbber 1.83.01
#
DISCID=ef11bb24
DTITLE=Sydney Lipton - Sweet harmony and Dancing at Grosvenor House
DYEAR=2003
DGENRE=
TTITLE0=Cocktails for two
TTITLE1=Love is sweetest thing
TTITLE2=It's d'lovely
TTITLE3=Love walked in
TTITLE4=Isn't it romantic
TTITLE5=Cuddle up a little closer, lovely mine
TTITLE6=Dance little lady
TTITLE7=Thanks
TTITLE8=Hold me
TTITLE9=Two sleepy people
TTITLE10=You do something to me
TTITLE11=Sweet harmony
TTITLE12=Angry
TTITLE13=Ac-cent-tchu-ate the positive
TTITLE14=Canadian sunset
TTITLE15=It's been a long, long time
TTITLE16=Five minutes more
TTITLE17=Read silk stockings and green perfume
TTITLE18=I still get jealos
TTITLE19=I've heard chat song before
TTITLE20=Be my life's companion
TTITLE21=Sioux Citi Sue
TTITLE22=You call everybody darling
TTITLE23=It looks like rain in Cherry Blossom Lane
TTITLE24=My baby just cares for me
TTITLE25=Little white lies
TTITLE26=Makin' whoopee
TTITLE27=Near you
TTITLE28=Rain or shine
TTITLE29=A little bit independent
TTITLE30=No love, no nothin'
TTITLE31=Scatter-brain
TTITLE32=Why don't we do this more often
TTITLE33=Siz lessons from Madame La Zonga
TTITLE34=You're driving me crazy
TTITLE35=Stop beatin' around the mulberry bush
EXTD=
EXTT0=
EXTT1=
EXTT2=
EXTT3=
EXTT4=
EXTT5=
EXTT6=
EXTT7=
EXTT8=
EXTT9=
EXTT10=
EXTT11=
EXTT12=
EXTT13=
EXTT14=
EXTT15=
EXTT16=
EXTT17=
EXTT18=
EXTT19=
EXTT20=
EXTT21=
EXTT22=
EXTT23=
EXTT24=
EXTT25=
EXTT26=
EXTT27=
EXTT28=
EXTT29=
EXTT30=
EXTT31=
EXTT32=
EXTT33=
EXTT34=
EXTT35=
PLAYORDER=
